HIERARCHY
ROOT Hips
{
	OFFSET 0.000000 100.481300 0.000000
	CHANNELS 6 Xposition Yposition Zposition Xrotation Yrotation Zrotation
	JOINT Spine
	{
		OFFSET -0.279200 12.230698 -2.892100
		CHANNELS 3 Xrotation Yrotation Zrotation
		JOINT Spine1
		{
			OFFSET -0.325700 14.269203 -3.374200
			CHANNELS 3 Xrotation Yrotation Zrotation
			JOINT Spine2
			{
				OFFSET -0.372300 16.307602 -0.352600
				CHANNELS 3 Xrotation Yrotation Zrotation
				JOINT Neck
				{
					OFFSET -0.418800 17.814194 8.416900
					CHANNELS 3 Xrotation Yrotation Zrotation
					JOINT Head
					{
						OFFSET 0.000000 7.031097 3.806800
						CHANNELS 3 Xrotation Yrotation Zrotation
						JOINT HeadTop_End
						{
							OFFSET 0.000000 24.646606 12.978600
							CHANNELS 3 Xrotation Yrotation Zrotation
							End Site
							{
								OFFSET 0.000000 27.854965 0.000000
							}
						}
					}
				}
				JOINT LeftShoulder
				{
					OFFSET 16.952999 14.495407 -7.737500
					CHANNELS 3 Xrotation Yrotation Zrotation
					JOINT LeftArm
					{
						OFFSET 9.308998 -2.777710 0.208600
						CHANNELS 3 Xrotation Yrotation Zrotation
						JOINT LeftForeArm
						{
							OFFSET 29.972298 0.000000 0.000000
							CHANNELS 3 Xrotation Yrotation Zrotation
							JOINT LeftHand
							{
								OFFSET 26.026505 0.000000 0.000000
								CHANNELS 3 Xrotation Yrotation Zrotation
								JOINT LeftHandThumb1
								{
									OFFSET 12.240501 -7.147949 9.207150
									CHANNELS 3 Xrotation Yrotation Zrotation
									JOINT LeftHandThumb2
									{
										OFFSET 4.138618 -2.389435 2.389433
										CHANNELS 3 Xrotation Yrotation Zrotation
										JOINT LeftHandThumb3
										{
											OFFSET 2.726913 -1.574387 1.574386
											CHANNELS 3 Xrotation Yrotation Zrotation
											JOINT LeftHandThumb4
											{
												OFFSET 3.941010 -2.275345 2.275342
												CHANNELS 3 Xrotation Yrotation Zrotation
												End Site
												{
													OFFSET -0.005798 5.087799 0.009903
												}
											}
										}
									}
								}
								JOINT LeftHandIndex1
								{
									OFFSET 24.424698 -1.985611 5.953459
									CHANNELS 3 Xrotation Yrotation Zrotation
									JOINT LeftHandIndex2
									{
										OFFSET 6.426697 0.000000 0.000000
										CHANNELS 3 Xrotation Yrotation Zrotation
										JOINT LeftHandIndex3
										{
											OFFSET 5.337898 0.000000 0.000000
											CHANNELS 3 Xrotation Yrotation Zrotation
											JOINT LeftHandIndex4
											{
												OFFSET 4.409401 0.000000 0.000000
												CHANNELS 3 Xrotation Yrotation Zrotation
												End Site
												{
													OFFSET 0.000000 4.409363 0.014373
												}
											}
										}
									}
								}
								JOINT LeftHandMiddle1
								{
									OFFSET 23.810104 0.000000 0.000000
									CHANNELS 3 Xrotation Yrotation Zrotation
									JOINT LeftHandMiddle2
									{
										OFFSET 7.176498 0.000000 0.000000
										CHANNELS 3 Xrotation Yrotation Zrotation
										JOINT LeftHandMiddle3
										{
											OFFSET 6.774902 0.000000 0.000000
											CHANNELS 3 Xrotation Yrotation Zrotation
											JOINT LeftHandMiddle4
											{
												OFFSET 5.403328 0.000000 0.000000
												CHANNELS 3 Xrotation Yrotation Zrotation
												End Site
												{
													OFFSET -0.027702 5.403244 0.017414
												}
											}
										}
									}
								}
								JOINT LeftHandRing1
								{
									OFFSET 22.908401 -0.839279 -6.020567
									CHANNELS 3 Xrotation Yrotation Zrotation
									JOINT LeftHandRing2
									{
										OFFSET 6.337502 0.000000 0.000000
										CHANNELS 3 Xrotation Yrotation Zrotation
										JOINT LeftHandRing3
										{
											OFFSET 5.779297 0.000000 0.000000
											CHANNELS 3 Xrotation Yrotation Zrotation
											JOINT LeftHandRing4
											{
												OFFSET 4.965698 0.000000 0.000000
												CHANNELS 3 Xrotation Yrotation Zrotation
												End Site
												{
													OFFSET 0.000000 4.965668 0.016186
												}
											}
										}
									}
								}
								JOINT LeftHandPinky1
								{
									OFFSET 20.037003 -1.530319 -10.950146
									CHANNELS 3 Xrotation Yrotation Zrotation
									JOINT LeftHandPinky2
									{
										OFFSET 5.254700 0.000000 0.000000
										CHANNELS 3 Xrotation Yrotation Zrotation
										JOINT LeftHandPinky3
										{
											OFFSET 4.810204 0.000000 0.000000
											CHANNELS 3 Xrotation Yrotation Zrotation
											JOINT LeftHandPinky4
											{
												OFFSET 3.647202 0.000000 0.000000
												CHANNELS 3 Xrotation Yrotation Zrotation
												End Site
												{
													OFFSET 0.000000 3.647186 0.011889
												}
											}
										}
									}
								}
							}
						}
					}
				}
				JOINT RightShoulder
				{
					OFFSET -15.141001 14.495407 -7.737500
					CHANNELS 3 Xrotation Yrotation Zrotation
					JOINT RightArm
					{
						OFFSET -9.308998 -2.777710 0.208500
						CHANNELS 3 Xrotation Yrotation Zrotation
						JOINT RightForeArm
						{
							OFFSET -29.972300 0.000000 0.000000
							CHANNELS 3 Xrotation Yrotation Zrotation
							JOINT RightHand
							{
								OFFSET -26.026505 0.000000 0.000000
								CHANNELS 3 Xrotation Yrotation Zrotation
								JOINT RightHandThumb1
								{
									OFFSET -12.240601 -7.148026 9.207092
									CHANNELS 3 Xrotation Yrotation Zrotation
									JOINT RightHandThumb2
									{
										OFFSET -4.138618 -2.389435 2.389433
										CHANNELS 3 Xrotation Yrotation Zrotation
										JOINT RightHandThumb3
										{
											OFFSET -2.726974 -1.574417 1.574421
											CHANNELS 3 Xrotation Yrotation Zrotation
											JOINT RightHandThumb4
											{
												OFFSET -3.941010 -2.275345 2.275343
												CHANNELS 3 Xrotation Yrotation Zrotation
												End Site
												{
													OFFSET 0.005814 5.087799 0.009927
												}
											}
										}
									}
								}
								JOINT RightHandIndex1
								{
									OFFSET -24.424698 -1.985657 5.953444
									CHANNELS 3 Xrotation Yrotation Zrotation
									JOINT RightHandIndex2
									{
										OFFSET -6.426697 0.000000 0.000000
										CHANNELS 3 Xrotation Yrotation Zrotation
										JOINT RightHandIndex3
										{
											OFFSET -5.337898 0.000000 0.000000
											CHANNELS 3 Xrotation Yrotation Zrotation
											JOINT RightHandIndex4
											{
												OFFSET -4.409401 0.000000 0.000000
												CHANNELS 3 Xrotation Yrotation Zrotation
												End Site
												{
													OFFSET 0.000000 4.409363 0.014408
												}
											}
										}
									}
								}
								JOINT RightHandMiddle1
								{
									OFFSET -23.810097 0.000000 0.000000
									CHANNELS 3 Xrotation Yrotation Zrotation
									JOINT RightHandMiddle2
									{
										OFFSET -7.176498 0.000000 0.000000
										CHANNELS 3 Xrotation Yrotation Zrotation
										JOINT RightHandMiddle3
										{
											OFFSET -6.774902 0.000000 0.000000
											CHANNELS 3 Xrotation Yrotation Zrotation
											JOINT RightHandMiddle4
											{
												OFFSET -5.403328 0.000000 0.000000
												CHANNELS 3 Xrotation Yrotation Zrotation
												End Site
												{
													OFFSET 0.027702 5.403244 0.017457
												}
											}
										}
									}
								}
								JOINT RightHandRing1
								{
									OFFSET -22.908302 -0.839325 -6.020576
									CHANNELS 3 Xrotation Yrotation Zrotation
									JOINT RightHandRing2
									{
										OFFSET -6.337502 0.000000 0.000000
										CHANNELS 3 Xrotation Yrotation Zrotation
										JOINT RightHandRing3
										{
											OFFSET -5.779297 0.000000 0.000000
											CHANNELS 3 Xrotation Yrotation Zrotation
											JOINT RightHandRing4
											{
												OFFSET -4.965698 0.000000 0.000000
												CHANNELS 3 Xrotation Yrotation Zrotation
												End Site
												{
													OFFSET 0.000000 4.965668 0.016226
												}
											}
										}
									}
								}
								JOINT RightHandPinky1
								{
									OFFSET -20.037003 -1.530334 -10.950259
									CHANNELS 3 Xrotation Yrotation Zrotation
									JOINT RightHandPinky2
									{
										OFFSET -5.254700 0.000000 0.000000
										CHANNELS 3 Xrotation Yrotation Zrotation
										JOINT RightHandPinky3
										{
											OFFSET -4.810204 0.000000 0.000000
											CHANNELS 3 Xrotation Yrotation Zrotation
											JOINT RightHandPinky4
											{
												OFFSET -3.647202 0.000000 0.000000
												CHANNELS 3 Xrotation Yrotation Zrotation
												End Site
												{
													OFFSET 0.000000 3.647186 0.011917
												}
											}
										}
									}
								}
							}
						}
					}
				}
			}
		}
	}
	JOINT LeftUpLeg
	{
		OFFSET 15.427100 -6.655098 0.678600
		CHANNELS 3 Xrotation Yrotation Zrotation
		JOINT LeftLeg
		{
			OFFSET 4.081073 -39.591068 13.024000
			CHANNELS 3 Xrotation Yrotation Zrotation
			JOINT LeftFoot
			{
				OFFSET -4.081074 -37.707932 -15.979700
				CHANNELS 3 Xrotation Yrotation Zrotation
				JOINT LeftToeBase
				{
					OFFSET 5.346399 -15.068900 20.645000
					CHANNELS 3 Xrotation Yrotation Zrotation
					JOINT LeftToe_End
					{
						OFFSET 2.754700 0.931300 11.300900
						CHANNELS 3 Xrotation Yrotation Zrotation
						End Site
						{
							OFFSET 0.000000 11.669021 0.000000
						}
					}
				}
			}
		}
	}
	JOINT RightUpLeg
	{
		OFFSET -15.569500 -6.655098 0.678600
		CHANNELS 3 Xrotation Yrotation Zrotation
		JOINT RightLeg
		{
			OFFSET -4.081825 -39.591045 13.023800
			CHANNELS 3 Xrotation Yrotation Zrotation
			JOINT RightFoot
			{
				OFFSET 4.081824 -37.707954 -15.979600
				CHANNELS 3 Xrotation Yrotation Zrotation
				JOINT RightToeBase
				{
					OFFSET -5.346400 -15.068900 20.645000
					CHANNELS 3 Xrotation Yrotation Zrotation
					JOINT RightToe_End
					{
						OFFSET -2.754700 0.931300 11.300900
						CHANNELS 3 Xrotation Yrotation Zrotation
						End Site
						{
							OFFSET 0.000000 11.669021 0.000000
						}
					}
				}
			}
		}
	}
}
MOTION
Frames: 4
Frame Time: 0.033333
-11.209816 88.127815 76.027428 4.132375 -31.814406 -0.399693 4.743345 -3.384284 2.455801 11.374846 -0.837387 0.205114 11.372397 -0.837068 0.219380 3.104785 0.068049 -0.195662 17.223650 -0.882296 2.051614 -0.000003 -0.000001 0.000001 0.352376 -6.237615 -20.981375 -25.894065 -29.163265 -53.646946 0.000004 -6.814637 0.000007 -20.133719 -5.681680 -11.520214 -0.266446 4.548719 10.792710 14.813248 8.521178 9.740471 -1.614324 -26.375909 15.352284 0.000001 0.000001 0.000001 0.202809 3.501069 -14.417580 0.516414 2.406905 -24.215691 0.197888 1.511280 -14.919047 0.000003 0.000001 0.000000 1.262846 7.120371 -17.001323 0.450769 2.255392 -22.601740 0.411197 2.157948 -21.574138 0.000001 0.000002 0.000002 1.625747 8.352024 -16.722045 1.305202 3.687640 -38.971000 0.360234 2.024403 -20.177519 -0.000001 0.000001 -0.000001 0.383671 4.308229 -23.357049 0.686273 2.753263 -27.987677 0.186394 1.467475 -14.476729 -0.000000 0.000000 -0.000001 -0.015308 7.769645 22.696953 -18.034582 8.174253 60.113342 -0.000002 12.627508 0.000019 -15.827736 9.984739 -0.930326 -6.439881 1.666974 -14.227988 17.243509 -20.001297 7.078071 -18.365557 13.385665 -9.307440 0.000003 0.000002 0.000002 -0.531508 3.585968 6.952327 0.569008 -2.232630 28.592768 0.427235 -1.950337 24.709813 0.000003 -0.000001 -0.000006 -0.680885 0.049020 14.208331 1.018168 -2.908316 38.582615 0.325454 -1.712045 21.525406 0.000000 0.000002 0.000002 0.015546 -2.612234 11.883288 1.409576 -3.339815 45.755144 0.279842 -1.591591 19.943046 0.000003 0.000001 -0.000000 -13.090430 -10.381361 9.454638 0.965437 -2.841037 37.530909 0.243237 -1.486883 18.580404 0.000000 0.000001 -0.000001 5.606183 11.696014 2.243310 28.442229 9.467561 -1.907568 -32.406966 5.656755 -0.059880 -7.242757 -0.000001 0.000003 0.000000 -0.000000 0.000000 -42.560381 -4.311716 7.549332 19.349800 -12.577495 -3.354071 4.651509 -2.661068 -1.147881 0.245781 -0.000015 -0.000006 0.000001 0.000000 0.000000 
-12.705221 87.922005 78.834381 3.463873 -30.301588 -0.678311 5.089159 -3.786462 3.382849 11.322166 -0.881660 0.504843 11.316893 -0.877288 0.523641 3.136369 0.063781 -0.307204 17.490692 -1.217861 2.168242 0.000002 0.000000 -0.000002 0.365930 -6.091475 -21.570548 -26.206283 -29.272565 -54.897727 -0.000005 -7.350787 -0.000004 -20.118513 -6.160891 -11.456444 -0.266445 4.548715 10.792710 14.798216 8.506837 9.746679 -1.624132 -26.287837 15.258393 -0.000007 -0.000004 0.000002 0.200982 3.435804 -14.252307 0.522399 2.420162 -24.357996 0.196284 1.505237 -14.857697 -0.000002 0.000000 -0.000002 1.249268 7.096762 -16.893296 0.454492 2.264318 -22.696396 0.410038 2.155035 -21.543431 0.000002 0.000002 0.000001 1.634307 8.383710 -16.706994 1.311351 3.695224 -39.066544 0.358426 2.019489 -20.126358 -0.000000 0.000001 -0.000001 0.438121 4.436403 -23.492922 0.691864 2.763750 -28.103887 0.185788 1.465106 -14.452824 -0.000001 -0.000000 0.000001 -0.031607 7.833909 23.013253 -17.263645 7.745576 59.477199 0.000003 9.901278 0.000005 -17.594352 9.149610 0.672106 -6.439877 1.666971 -14.227992 17.092033 -19.745556 6.912048 -18.496685 12.538389 -8.848157 0.000001 -0.000001 -0.000003 -0.332252 3.495395 5.419255 0.562032 -2.219805 28.413408 0.430365 -1.957109 24.801400 -0.000001 0.000002 0.000001 -0.511641 -0.413328 13.211586 1.011445 -2.899896 38.450014 0.323966 -1.708253 21.475356 0.000001 0.000003 0.000002 0.054051 -2.747456 10.625222 1.380603 -3.311395 45.255782 0.279495 -1.590638 19.930545 -0.000000 0.000004 -0.000000 -13.036589 -10.493691 8.472670 0.959671 -2.833529 37.414366 0.240500 -1.478713 18.474721 -0.000000 0.000002 -0.000001 8.275390 12.401532 2.693974 28.306747 9.422138 -1.816501 -32.391066 4.075465 -0.179470 -10.191070 0.000001 0.000003 -0.000001 0.000000 -0.000000 -40.042110 -3.350491 8.052831 18.331905 -12.020497 -4.393615 10.746585 -5.344554 -4.050954 -0.091717 -0.000011 0.000001 0.000001 0.000003 0.000000 
-14.297868 88.547844 81.657639 2.920546 -28.372415 -1.171737 5.518564 -4.309635 4.609228 11.193400 -0.980499 0.838109 11.184239 -0.967682 0.862682 3.138490 0.033842 -0.255696 17.793075 -1.416355 2.507810 -0.000001 0.000002 -0.000003 0.395503 -5.844265 -21.552413 -26.920940 -28.356936 -57.009827 0.000002 -7.606777 -0.000012 -19.926735 -6.939715 -11.288828 -0.266438 4.548716 10.792709 14.376075 7.227323 10.328846 -1.428535 -27.084154 16.011854 0.000000 0.000000 -0.000003 0.199626 3.470825 -14.142953 0.529645 2.436073 -24.528748 0.191928 1.488703 -14.691064 -0.000002 -0.000002 0.000000 1.263148 7.239034 -16.393847 0.456030 2.267994 -22.735294 0.407562 2.148734 -21.477229 -0.000001 -0.000004 0.000000 1.723738 8.632888 -16.850683 1.311556 3.695461 -39.069826 0.355770 2.012230 -20.050678 -0.000000 -0.000000 0.000001 0.695644 5.042756 -23.428732 0.712091 2.801244 -28.520490 0.183769 1.457255 -14.373592 0.000001 -0.000001 0.000000 -0.067842 8.006887 23.791246 -17.135947 8.064930 58.422795 0.000004 5.157221 0.000002 -17.841354 8.275742 2.299568 -6.439877 1.666972 -14.227992 16.750120 -19.152740 6.534889 -18.623779 10.519552 -7.772099 0.000003 -0.000000 0.000002 -0.089550 3.087561 3.857128 0.563121 -2.221817 28.441545 0.432968 -1.962742 24.877665 0.000001 -0.000003 -0.000000 -0.254217 -1.352649 12.079712 1.005181 -2.891983 38.325697 0.319879 -1.697838 21.337847 -0.000001 0.000001 -0.000001 0.109769 -3.038668 8.957781 1.367259 -3.298126 45.024016 0.276093 -1.581244 19.807892 0.000000 0.000000 -0.000001 -12.954098 -10.706734 7.081416 0.971585 -2.849031 37.654894 0.233621 -1.457973 18.206139 0.000001 0.000003 0.000003 9.879140 13.028752 3.672785 28.380252 9.381833 -1.225169 -30.305689 2.429881 0.030840 -14.398269 0.000004 -0.000006 -0.000000 -0.000000 -0.000001 -37.129803 -3.297492 7.749201 17.918400 -11.301982 -4.256463 11.316197 -7.952478 -5.242843 0.248513 0.000012 -0.000001 -0.000000 -0.000001 -0.000000 
-15.802711 89.264954 84.291199 2.749036 -26.924554 -1.628490 5.989992 -4.578085 5.685026 11.008781 -1.033381 1.093553 10.996229 -1.013284 1.122062 3.119767 -0.045785 -0.020720 18.073225 -1.554775 3.215152 -0.000001 -0.000001 0.000003 0.420740 -5.622373 -20.821799 -27.926635 -26.217135 -59.830811 0.000005 -7.547499 0.000003 -19.509076 -7.522991 -10.987538 -0.266446 4.548715 10.792710 13.856429 5.376138 11.156172 -1.138842 -28.219446 17.118518 -0.000002 -0.000004 0.000003 0.210396 3.611334 -14.147519 0.525036 2.425963 -24.420100 0.187410 1.471425 -14.516648 -0.000002 -0.000000 0.000001 1.283395 7.482352 -15.590632 0.448612 2.250216 -22.546967 0.405590 2.143728 -21.424772 0.000002 0.000002 0.000002 1.844776 9.003314 -16.909269 1.293739 3.673442 -38.792469 0.354920 2.009929 -20.026818 0.000002 0.000001 0.000000 0.997803 5.772217 -23.168722 0.736152 2.845029 -29.009056 0.181327 1.447721 -14.277580 -0.000001 -0.000000 -0.000001 -0.128314 8.355074 24.695140 -17.357531 8.335143 57.261851 -0.000002 1.492527 0.000001 -16.761310 6.290267 3.734458 -6.439875 1.666972 -14.227992 16.289880 -18.321416 6.018979 -18.605625 8.302927 -6.589298 0.000000 0.000001 0.000003 0.096393 2.626194 2.693899 0.567976 -2.230767 28.566752 0.431480 -1.959519 24.833857 0.000002 -0.000001 0.000001 -0.033284 -2.322115 11.140809 0.998502 -2.883525 38.193065 0.316266 -1.688554 21.215548 0.000001 -0.000003 -0.000001 0.142037 -3.302394 7.457655 1.361754 -3.292642 44.928629 0.271988 -1.569796 19.658413 0.000001 0.000001 0.000000 -12.967562 -10.729206 5.749104 0.987405 -2.869385 37.972068 0.227712 -1.439894 17.972724 0.000003 0.000000 0.000005 9.223155 13.126287 4.675913 30.649521 8.331966 -0.260533 -26.412265 2.636577 1.210598 -12.681354 0.031092 -1.938644 -0.000000 0.000000 -0.000000 -34.652808 -4.242193 6.542812 19.106925 -10.634054 -2.718930 9.229965 -8.647000 -5.107370 0.497874 0.000008 -0.000003 0.000000 0.000001 -0.000000 
